<svg id="Layer_1" data-name="Layer 1" xmlns="http://www.w3.org/2000/svg" xmlns:xlink="http://www.w3.org/1999/xlink" viewBox="0 0 132 132"><defs><style>.cls-1{fill:url(#linear-gradient);}.cls-2{fill:#fff;}</style><linearGradient id="linear-gradient" x1="19.33" y1="112.67" x2="112.67" y2="19.33" gradientUnits="userSpaceOnUse"><stop offset="0" stop-color="#7752ff"/><stop offset="1" stop-color="#a900d4"/></linearGradient></defs><title>portfolio</title><circle class="cls-1" cx="66" cy="66" r="66"/><path class="cls-2" d="M71.69,37.81a17.49,17.49,0,0,1,12.43,4.83,15.64,15.64,0,0,1,.2,23.07,17.62,17.62,0,0,1-12,5h-.15l-.47,0-.24,0H60V89.56a4.44,4.44,0,0,1-1.34,3.26,4.49,4.49,0,0,1-3.29,1.37,4.68,4.68,0,0,1-4.63-4.63V42.44a4.68,4.68,0,0,1,4.63-4.63ZM72,61.43a8.58,8.58,0,0,0,5.69-2.16,6.51,6.51,0,0,0-.08-10.08,8.65,8.65,0,0,0-5.88-2.12H60V61.43Z"/></svg>